<?xml version="1.0" encoding="utf-8"?>
<!-- Generator: Adobe Illustrator 21.0.1, SVG Export Plug-In . SVG Version: 6.00 Build 0)  -->
<svg version="1.1" id="Слой_1" xmlns="http://www.w3.org/2000/svg" xmlns:xlink="http://www.w3.org/1999/xlink" x="0px" y="0px"
	 viewBox="0 0 21.6 25" style="enable-background:new 0 0 21.6 25;" xml:space="preserve">
<style type="text/css">
	.st0{fill:#F56256;}
</style>
<g transform="translate(0.000000,1600.000000) scale(0.100000,-0.100000)">
	<path class="st0" d="M104.8,16000c-21.3-0.6-40.1-15.8-45.2-36.5c-1.2-4.9-1.4-6.8-1.4-14.6v-6.6H34.4c-21.2,0-23.8,0-23.8-0.3
		c0-0.2-2.4-43.1-5.3-95.5c-2.9-52.3-5.3-95.5-5.3-95.8v-0.7h106.3h106.3v0.7c0,0.4-2.4,43.5-5.3,95.8c-2.9,52.3-5.3,95.3-5.3,95.5
		c0,0.2-2.6,0.3-23.8,0.3h-23.8v6.6c0,3.6-0.1,7.3-0.2,8.2C151.2,15982.2,129.9,16000.8,104.8,16000z M112.6,15979.9
		c8.9-2.3,15.5-7.5,19.5-15.5c2.4-4.8,3.1-8.8,3.1-17.8v-4.3h-28.8H77.5v4.3c0,7.6,0.4,11,1.8,14.9c2.9,8.1,9.5,14.6,17.6,17.5
		c1.4,0.5,4,1.2,5.8,1.5c0.3,0,2.2,0.1,4.2,0C110.2,15980.4,110.9,15980.3,112.6,15979.9z M58.3,15908.6v-14.4h9.6h9.6v14.4v14.4
		h28.8h28.8v-14.4v-14.4h9.6h9.6v14.4v14.4H169h14.6l0.1-1.2c0.1-0.7,2-34.9,4.2-76c2.3-41.1,4.2-75.2,4.2-75.7l0.1-0.9h-85.9H20.4
		l0.1,0.9c0,0.5,1.9,34.6,4.2,75.7c2.3,41.1,4.2,75.3,4.2,76l0.1,1.2h14.6h14.6V15908.6z"/>
</g>
</svg>
