<?xml version="1.0" encoding="utf-8"?>
<!-- Generator: Adobe Illustrator 21.0.1, SVG Export Plug-In . SVG Version: 6.00 Build 0)  -->
<svg version="1.1" id="shopping_x5F_bag" xmlns="http://www.w3.org/2000/svg" xmlns:xlink="http://www.w3.org/1999/xlink" x="0px"
	 y="0px" viewBox="0 0 1600 1600" enable-background="new 0 0 1600 1600" xml:space="preserve">
<g transform="translate(0.000000,1600.000000) scale(0.100000,-0.100000)">
	<path style="fill: #fff" d="M7920,14503c-1109-33-2086-823-2349-1898c-62-256-71-352-71-762v-343H4260c-1103,0-1240-2-1240-15c0-9-124-2243-275-4965
		c-151-2723-275-4966-275-4985v-35h5530h5530v35c0,19-124,2262-275,4985c-151,2722-275,4956-275,4965c0,13-137,15-1240,15h-1240v343
		c0,188-4,381-10,427C10336,13579,9227,14542,7920,14503z M8325,13457c463-118,806-391,1015-806c124-248,160-456,160-928v-223H8000
		H6500v223c0,396,22,573,96,777c151,420,492,759,914,908c73,25,210,60,300,76c14,2,113,3,220,1C8200,13483,8238,13479,8325,13457z
		 M5500,9750v-750h500h500v750v750h1500h1500v-750v-750h500h500v750v750h759h759l6-62c4-35,103-1813,221-3953
		c118-2139,216-3911,218-3937l4-48H8000H3533l4,47c2,27,100,1799,218,3938c118,2140,217,3918,221,3953l6,62h759h759V9750z"/>
</g>
</svg>
